<svg id="Layer_1" data-name="Layer 1" xmlns="http://www.w3.org/2000/svg" viewBox="0 0 1527.74 341.92"><defs><style>.cls-1{fill:#5d00c3;}</style></defs><path class="cls-1" d="M903.5,934.8q-53.07,0-81.13-25.31t-28.06-71.44v-2.32q0-46.12,28.06-71.45T903.5,739q53.09,0,81.07,25.31t28,71.45v2.32q0,46.13-28,71.44T903.5,934.8Zm0-34.56q32,0,48.46-16.49t16.48-45.56v-2.6q0-29.07-16.48-45.56T903.5,773.54q-32.25,0-48.66,16.49t-16.42,45.56v2.6q0,29.07,16.42,45.56T903.5,900.24Z" transform="translate(-256.6 -725.09)"/><path class="cls-1" d="M1092.53,929.31h-41.65V744.47h41.65V929.31Zm65.09-56.12h-75.93V839.93h74.91q19.38,0,28.35-7.74t9-22.2v-2.32q0-14.59-9-22.34t-28.35-7.74h-75.49V744.47h76.51q40.79,0,60.09,16.71T1237,807.82v2.31q0,29.37-19.31,46.21T1157.62,873.19Z" transform="translate(-256.6 -725.09)"/><path class="cls-1" d="M1451.93,778.17H1257v-33.7h195Zm-76.22,151.14h-42.52V758.64h42.52Z" transform="translate(-256.6 -725.09)"/><path class="cls-1" d="M1529.45,744.47V929.31h-42.37V744.47Z" transform="translate(-256.6 -725.09)"/><path class="cls-1" d="M1609.29,929.31H1559.1l79.69-99.07v7.08l-77.52-92.85h49l56.84,67.83h2.75l56.84-67.83h49l-77.52,92.85v-7.08l79.69,99.07h-50.18l-57.85-71.59h-2.75Z" transform="translate(-256.6 -725.09)"/><path class="cls-1" d="M829.28,1065.16H816.71V993.1h12.57Zm23.51,0H826V1055H852.4q13.13,0,20-6.65t6.85-18.72v-1.07q0-12.07-6.85-18.64t-20-6.57H825.67V993.1h27.12q19.29,0,29.38,9.16t10.09,26.19v1.13q0,17.14-10.09,26.36T852.79,1065.16Z" transform="translate(-256.6 -725.09)"/><path class="cls-1" d="M959.69,993.1v72.06H947.12V993.1Z" transform="translate(-256.6 -725.09)"/><path class="cls-1" d="M1053.17,1067q-12,0-20.63-4.37a30.76,30.76,0,0,1-13.25-12.66q-4.62-8.29-4.63-20.13v-1q0-17.77,11-27.69t32.28-9.92a76.25,76.25,0,0,1,13.28,1.07A71,71,0,0,1,1082,995a58.29,58.29,0,0,1,8.31,3.58l1.24,10.94a82.76,82.76,0,0,0-14.06-5.52,64.21,64.21,0,0,0-18.36-2.37q-15.61,0-23.48,7t-7.86,20v1.07q0,12.74,7.44,19.82t21.82,7.07a34,34,0,0,0,11.61-1.8,24.48,24.48,0,0,0,8.23-4.77,19,19,0,0,0,4.8-6.45v-13l1.58,4.12-26,.11v-10h36.43v26.45h-12.29a20.36,20.36,0,0,1-4.49,7.72,22.73,22.73,0,0,1-9,5.81A41.91,41.91,0,0,1,1053.17,1067Zm28.25-1.86.51-16.07h11.73v16.07Z" transform="translate(-256.6 -725.09)"/><path class="cls-1" d="M1164.3,993.1v72.06h-12.57V993.1Z" transform="translate(-256.6 -725.09)"/><path class="cls-1" d="M1292.18,1003.3H1217.7V993.1h74.48Zm-31,61.86h-12.58V997.1h12.58Z" transform="translate(-256.6 -725.09)"/><path class="cls-1" d="M1337.46,1065.16h-13l33.32-72.06h19l33.09,72.06h-13L1368.13,1001h-1.81Zm52.83-20h-46.35v-10.15h46.35Z" transform="translate(-256.6 -725.09)"/><path class="cls-1" d="M1473.56,993.1v72.06H1461V993.1Zm-6.14,72.06v-10.32h55.2v10.32Z" transform="translate(-256.6 -725.09)"/><path class="cls-1" d="M1648.12,1065.16h-13l33.32-72.06h18.95l33.09,72.06h-13L1678.79,1001H1677Zm52.83-20h-46.34v-10.15H1701Z" transform="translate(-256.6 -725.09)"/><path class="cls-1" d="M1784.34,993.1v72.06h-12.57V993.1Z" transform="translate(-256.6 -725.09)"/><path class="cls-1" d="M704.21,889.38c0,91.88-67.44,164.29-164.29,164.29-33.49,0-63.36-8.6-88.26-23.53v17.65H402.79v-24.44h24.44V974.47H640.91L569.74,779.86,427.23,974.47H402.79v-24H379.25V926h22.18V901.6H378.35V852.72h48.88V828.28H378.35v-24h24.44V779.86H378.35V755.42h24.44V731h24.44v48.88h24.43V748.63c24.9-14.94,54.77-23.54,88.26-23.54C636.77,725.09,704.21,797.06,704.21,889.38Zm-350.3-134h-24v24.44h24Zm-24,267.93h24V998.91h-24ZM305.48,779.86v24h24.44v-24Zm0,194.61v24.44h24.44V974.47Zm48.43-121.75h24.44V828.28H353.91Zm0-48.42h24.44V779.86H353.91v24h-24v24.43h24Zm-24,24H305.48v24.44h24.44Zm49.33,146.19v-24H329.92v24h24v24.44h24.44v24.44h24.44V974.47ZM377.89,926V901.6h-24V926Zm-48-24.44h24V852.72h-24Zm-24.44,0V852.72H281v24.44H256.6V901.6H281V926h24.44v24.44h24.44V901.6Zm303.46,54.06H457.41l101.06-138Zm-128.8-13.54H584.2l-34.66-94.77Z" transform="translate(-256.6 -725.09)"/></svg>