<svg id="Layer_1" data-name="Layer 1" xmlns="http://www.w3.org/2000/svg" viewBox="0 0 1576.4 432.16"><defs><style>.cls-1{font-size:289.26px;font-family:AnekDevanagariExpanded-SemiBold, Anek Devanagari Expanded;font-weight:600;}.cls-1,.cls-2,.cls-3{fill:#5d00c3;}.cls-2{font-size:112.77px;font-family:AnekDevanagariExpanded-Medium, Anek Devanagari Expanded;font-weight:500;}</style></defs><text class="cls-1" transform="translate(523.25 237.05)">OPTIX</text><text class="cls-2" transform="translate(549.68 372.9)">DIGITAL AI</text><path class="cls-3" d="M704.21,889.38c0,91.88-67.44,164.29-164.29,164.29-33.49,0-63.36-8.6-88.26-23.53v17.65H402.79v-24.44h24.44V974.47H640.91L569.74,779.86,427.23,974.47H402.79v-24H379.25V926h22.18V901.6H378.35V852.72h48.88V828.28H378.35v-24h24.44V779.86H378.35V755.42h24.44V731h24.44v48.88h24.43V748.63c24.9-14.94,54.77-23.54,88.26-23.54C636.77,725.09,704.21,797.06,704.21,889.38Zm-350.3-134h-24v24.44h24Zm-24,267.93h24V998.91h-24ZM305.48,779.86v24h24.44v-24Zm0,194.61v24.44h24.44V974.47Zm48.43-121.75h24.44V828.28H353.91Zm0-48.42h24.44V779.86H353.91v24h-24v24.43h24Zm-24,24H305.48v24.44h24.44Zm49.33,146.19v-24H329.92v24h24v24.44h24.44v24.44h24.44V974.47ZM377.89,926V901.6h-24V926Zm-48-24.44h24V852.72h-24Zm-24.44,0V852.72H281v24.44H256.6V901.6H281V926h24.44v24.44h24.44V901.6Zm303.46,54.06H457.41l101.06-138Zm-128.8-13.54H584.2l-34.66-94.77Z" transform="translate(-256.6 -692.26)"/></svg>