<svg id="Layer_1" data-name="Layer 1" xmlns="http://www.w3.org/2000/svg" viewBox="0 0 1527.74 341.92"><defs><style>.cls-1{fill:#fff;}</style></defs><path class="cls-1" d="M-923.5,182.8q-53.07,0-81.13-25.31t-28.06-71.44V83.73q0-46.13,28.06-71.45T-923.5-13q53.09,0,81.07,25.31t28,71.45v2.32q0,46.13-28,71.44T-923.5,182.8Zm0-34.56q32,0,48.46-16.49t16.48-45.56v-2.6q0-29.07-16.48-45.56T-923.5,21.54q-32.25,0-48.66,16.49t-16.42,45.56v2.6q0,29.07,16.42,45.56T-923.5,148.24Z" transform="translate(1570.4 26.91)"/><path class="cls-1" d="M-734.47,177.31h-41.65V-7.53h41.65V177.31Zm65.09-56.12h-75.93V87.93h74.91q19.38,0,28.35-7.74t9-22.2V55.67q0-14.6-9-22.34t-28.35-7.74h-75.49V-7.53h76.51q40.78,0,60.09,16.71T-590,55.82v2.31q0,29.37-19.31,46.21T-669.38,121.19Z" transform="translate(1570.4 26.91)"/><path class="cls-1" d="M-375.07,26.17H-570V-7.53h195Zm-76.22,151.14h-42.52V6.64h42.52Z" transform="translate(1570.4 26.91)"/><path class="cls-1" d="M-297.55-7.53V177.31h-42.37V-7.53Z" transform="translate(1570.4 26.91)"/><path class="cls-1" d="M-217.71,177.31H-267.9l79.69-99.07v7.08L-265.73-7.53h49l56.84,67.83h2.75l56.84-67.83h49l-77.52,92.85V78.24l79.69,99.07H-99.26l-57.85-71.59h-2.75Z" transform="translate(1570.4 26.91)"/><path class="cls-1" d="M-997.72,313.16h-12.57V241.1h12.57Zm23.51,0H-1001V303h26.39q13.13,0,20-6.65t6.85-18.72v-1.07q0-12.08-6.85-18.64t-20-6.57h-26.73V241.1h27.12q19.29,0,29.38,9.16t10.09,26.19v1.13q0,17.15-10.09,26.36T-974.21,313.16Z" transform="translate(1570.4 26.91)"/><path class="cls-1" d="M-867.31,241.1v72.06h-12.57V241.1Z" transform="translate(1570.4 26.91)"/><path class="cls-1" d="M-773.83,315q-12,0-20.63-4.37A30.76,30.76,0,0,1-807.71,298q-4.62-8.3-4.63-20.13v-1q0-17.78,11-27.69t32.28-9.92a76.25,76.25,0,0,1,13.28,1.07A71,71,0,0,1-745,243a58.29,58.29,0,0,1,8.31,3.58l1.24,10.94A82.76,82.76,0,0,0-749.55,252a64.21,64.21,0,0,0-18.36-2.37q-15.62,0-23.48,7t-7.86,20v1.07q0,12.74,7.44,19.82t21.82,7.07a34,34,0,0,0,11.61-1.8,24.48,24.48,0,0,0,8.23-4.77,19,19,0,0,0,4.8-6.45v-13l1.58,4.12-26,.11v-10h36.43v26.45h-12.29a20.36,20.36,0,0,1-4.49,7.72,22.73,22.73,0,0,1-9,5.81A41.91,41.91,0,0,1-773.83,315Zm28.25-1.86.51-16.07h11.73v16.07Z" transform="translate(1570.4 26.91)"/><path class="cls-1" d="M-662.7,241.1v72.06h-12.57V241.1Z" transform="translate(1570.4 26.91)"/><path class="cls-1" d="M-534.82,251.3H-609.3V241.1h74.48Zm-30.95,61.86h-12.58V245.1h12.58Z" transform="translate(1570.4 26.91)"/><path class="cls-1" d="M-489.54,313.16h-13l33.32-72.06h18.95l33.09,72.06h-13L-458.87,249h-1.81Zm52.83-20h-46.35V283.05h46.35Z" transform="translate(1570.4 26.91)"/><path class="cls-1" d="M-353.44,241.1v72.06H-366V241.1Zm-6.14,72.06V302.84h55.2v10.32Z" transform="translate(1570.4 26.91)"/><path class="cls-1" d="M-178.88,313.16h-13l33.32-72.06h19l33.09,72.06h-13L-148.21,249H-150Zm52.83-20h-46.34V283.05H-126Z" transform="translate(1570.4 26.91)"/><path class="cls-1" d="M-42.66,241.1v72.06H-55.23V241.1Z" transform="translate(1570.4 26.91)"/><path class="cls-1" d="M-1122.79,137.38c0,91.88-67.44,164.29-164.29,164.29-33.49,0-63.36-8.6-88.26-23.53v17.65h-48.87V271.35h24.44V222.47h213.68l-71.17-194.61-142.51,194.61h-24.44v-24h-23.54V174h22.18V149.6h-23.08V100.72h48.88V76.28h-48.88v-24h24.44V27.86h-24.44V3.42h24.44V-21h24.44V27.86h24.43V-3.37c24.9-14.94,54.77-23.54,88.26-23.54C-1190.23-26.91-1122.79,45.06-1122.79,137.38Zm-350.3-134h-24V27.86h24Zm-24,267.93h24V246.91h-24Zm-24.44-243.49v24h24.44v-24Zm0,194.61v24.44h24.44V222.47Zm48.43-121.75h24.44V76.28h-24.44Zm0-48.42h24.44V27.86h-24.44v24h-24V76.28h24Zm-24,24h-24.44v24.44h24.44Zm49.33,146.19v-24h-49.33v24h24v24.44h24.44v24.44h24.44V222.47Zm-1.36-48.43V149.6h-24V174Zm-48-24.44h24V100.72h-24Zm-24.44,0V100.72H-1546v24.44h-24.44V149.6H-1546V174h24.44v24.44h24.44V149.6Zm303.46,54.06h-151.53l101.06-138Zm-128.8-13.54h104.06l-34.66-94.77Z" transform="translate(1570.4 26.91)"/></svg>