<svg id="Layer_1" data-name="Layer 1" xmlns="http://www.w3.org/2000/svg" xmlns:xlink="http://www.w3.org/1999/xlink" viewBox="0 0 1166.57 856.35"><defs><style>.cls-1{fill:url(#linear-gradient);}.cls-2{mask:url(#mask);}.cls-3{fill:#fff;}</style><linearGradient id="linear-gradient" x1="-1783.25" y1="227.25" x2="-499.75" y2="1510.75" gradientUnits="userSpaceOnUse"><stop offset="0" stop-color="#fff"/><stop offset="0.04" stop-color="#e0e0e0"/><stop offset="0.1" stop-color="#b2b2b2"/><stop offset="0.17" stop-color="#878787"/><stop offset="0.24" stop-color="#636363"/><stop offset="0.32" stop-color="#444"/><stop offset="0.4" stop-color="#2b2b2b"/><stop offset="0.49" stop-color="#181818"/><stop offset="0.6" stop-color="#0a0a0a"/><stop offset="0.74" stop-color="#020202"/><stop offset="1"/></linearGradient><mask id="mask" x="-116.68" y="-197.65" width="1395" height="1172" maskUnits="userSpaceOnUse"><g transform="translate(1722.32 -480.65)"><rect class="cls-1" x="-1839" y="283" width="1395" height="1172"/></g></mask></defs><g class="cls-2"><path class="cls-3" d="M-555.75,908.83c0,239.44-175.75,428.17-428.18,428.17-87.28,0-165.13-22.41-230-61.34v46h-127.39V1258h63.7V1130.58h556.92l-185.5-507.2-371.42,507.2h-63.7v-62.52h-61.33v-63.69h57.79v-63.7H-1405V813.28h127.39V749.59H-1405V687.07h63.69V623.38H-1405v-63.7h63.69V496h63.7V623.38h63.69V542c64.88-38.93,142.73-61.34,230-61.34C-731.5,480.65-555.75,668.2-555.75,908.83Zm-913-349.15h-62.51v63.7h62.51ZM-1531.23,1258h62.51v-63.7h-62.51Zm-63.7-634.59v62.51h63.7V623.38Zm0,507.2v63.69h63.7v-63.69Zm126.21-317.3h63.7V749.59h-63.7Zm0-126.21h63.7V623.38h-63.7v62.51h-62.51v63.7h62.51Zm-62.51,62.52h-63.7v63.69h63.7Zm128.57,381v-62.52h-128.57v62.52h62.51v63.69h63.7V1258h63.69V1130.58Zm-3.54-126.21v-63.7h-62.52v63.7Zm-125-63.7h62.51V813.28h-62.51Zm-63.7,0V813.28h-63.69V877h-63.7v63.69h63.7v63.7h63.69v63.69h63.7V940.67ZM-804,1081.56h-394.91L-935.58,721.9Zm-335.68-35.3h271.21l-90.34-247Z" transform="translate(1722.32 -480.65)"/></g></svg>